<?xml version="1.0" encoding="utf-8"?>
<!-- Generator: Adobe Illustrator 25.4.1, SVG Export Plug-In . SVG Version: 6.00 Build 0)  -->
<svg version="1.1" id="图层_1" xmlns="http://www.w3.org/2000/svg" xmlns:xlink="http://www.w3.org/1999/xlink" x="0px" y="0px"
	 viewBox="-20 0 224.9 95.6" style="enable-background:new 0 0 224.9 95.6;" xml:space="preserve">
<style type="text/css">
	.st0{fill:none;stroke:#FFC500;stroke-width:10;stroke-linecap:round;stroke-miterlimit:8;}
	.st1{clip-path:url(#SVGID_00000014608119026031020550000010742442220690224817_);}
	.st2{fill:none;stroke:#FFC500;stroke-width:10;stroke-linecap:round;stroke-linejoin:round;}
</style>
<path class="st0" d="M-136.9,32.6c16.6,10.2,20.4,30.1,8.7,44.5c-11.8,14.4-34.8,17.7-51.3,7.6s-20.5-30.2-8.7-44.5
	c2.5-3,5.4-5.5,8.7-7.5"/>
<g>
	<defs>
		<polygon id="SVGID_1_" points="-200.1,95.7 -115.9,95.7 -115.9,0 -200.1,0 -200.1,95.7 		"/>
	</defs>
	<clipPath id="SVGID_00000111170328428799541380000005078377808948676997_">
		<use xlink:href="#SVGID_1_"  style="overflow:visible;"/>
	</clipPath>
	<g style="clip-path:url(#SVGID_00000111170328428799541380000005078377808948676997_);">
		<polyline class="st2" points="-169.9,15.4 -158.6,26.7 -137,5 		"/>
	</g>
</g>
<g>
	<path d="M-73.9,81.6h-7.8l5.6-53.3h7.8L-73.9,81.6z M-60.2,24.9h-6.3l-6.7-13.6h9L-60.2,24.9z M-49.8,77.1h-7.4l3.9-36.3h-1.9
		l-10.6,30.6h-4.9l8.9-30.6h-4l0.8-7.5h12.5l0.9-8.4h7.4l-0.9,8.4h12.3l-0.8,7.5h-3.6l2.4,29.7h-4.9L-44,40.8h-1.9L-49.8,77.1z
		 M-26.9,81.6h-11.6l-1-7.5h5.5l5.6-53.3h-29l0.8-7.6h36.8L-26.9,81.6z" fill="currentcolor"/>
	<path d="M3.5,34.5L2.4,61h-3l0.1-24l-4.7,44.8h-6.4l5.6-53.5l-9.5,50.4h-2.8l7.9-50.4h-2l0.8-7.1h6.4l1-10h6.5l-1.1,10h4l-0.7,7.1
		H0.3l-0.7,6.3H3.5z M8.4,81.8H1.5l3.8-36.2h36.5l-3.7,36.2h-7.8l-1-5.9h2.9l1.1-10.9h-3.4l-0.4-0.8l-1.3,12.2H12.9l1.3-12.2
		l-0.6,0.8h-3.4L8.4,81.8z M43.4,18.9l-9.6,7h11.2l-0.6,6l-3.1,5.9h-5.2l1.8-5.9h-5.4l-1.3,11.9h-9l-1-4.8h3.6l0.8-7.1h-3.7L10,43.7
		H3.9l9.7-11.8H5.9l0.7-6h11.3l-5.1-5h9.1l3.4,5h0.5l7.1-7H9.5l0.6-5.8h33.8L43.4,18.9z M34.8,51.6H11.5l-1.3,12.7l5.1-10.8h6.5
		l-4.9,6.8h10.6l-3.4-6.8h6.5l2.8,10.8L34.8,51.6z M18.8,71h4.8l0.5-5.3h-4.8L18.8,71z" fill="currentcolor"/>
</g>
</svg>
